<mxfile host="app.diagrams.net" agent="Mozilla/5.0 (Windows NT 10.0; Win64; x64) AppleWebKit/537.36 (KHTML, like Gecko) Chrome/130.0.0.0 Safari/537.36" version="24.8.6">
  <diagram name="หน้า-1" id="IY87oygJnHesE6KYx2EU">
    <mxGraphModel dx="1050" dy="530" grid="1" gridSize="10" guides="1" tooltips="1" connect="1" arrows="1" fold="1" page="1" pageScale="1" pageWidth="827" pageHeight="1169" math="0" shadow="0">
      <root>
        <mxCell id="0" />
        <mxCell id="1" parent="0" />
        <mxCell id="DhF1V45KQ2lxHyCD6Vbx-6" value="" style="edgeStyle=orthogonalEdgeStyle;rounded=0;orthogonalLoop=1;jettySize=auto;html=1;" edge="1" parent="1" source="DhF1V45KQ2lxHyCD6Vbx-1" target="DhF1V45KQ2lxHyCD6Vbx-2">
          <mxGeometry relative="1" as="geometry" />
        </mxCell>
        <mxCell id="DhF1V45KQ2lxHyCD6Vbx-1" value="start" style="ellipse;whiteSpace=wrap;html=1;" vertex="1" parent="1">
          <mxGeometry x="354" y="10" width="120" height="80" as="geometry" />
        </mxCell>
        <mxCell id="DhF1V45KQ2lxHyCD6Vbx-7" value="" style="edgeStyle=orthogonalEdgeStyle;rounded=0;orthogonalLoop=1;jettySize=auto;html=1;" edge="1" parent="1" source="DhF1V45KQ2lxHyCD6Vbx-2" target="DhF1V45KQ2lxHyCD6Vbx-3">
          <mxGeometry relative="1" as="geometry" />
        </mxCell>
        <mxCell id="DhF1V45KQ2lxHyCD6Vbx-2" value="Frist Name:" style="shape=parallelogram;perimeter=parallelogramPerimeter;whiteSpace=wrap;html=1;fixedSize=1;" vertex="1" parent="1">
          <mxGeometry x="354" y="120" width="120" height="60" as="geometry" />
        </mxCell>
        <mxCell id="DhF1V45KQ2lxHyCD6Vbx-9" value="" style="edgeStyle=orthogonalEdgeStyle;rounded=0;orthogonalLoop=1;jettySize=auto;html=1;" edge="1" parent="1" source="DhF1V45KQ2lxHyCD6Vbx-3" target="DhF1V45KQ2lxHyCD6Vbx-8">
          <mxGeometry relative="1" as="geometry" />
        </mxCell>
        <mxCell id="DhF1V45KQ2lxHyCD6Vbx-3" value="Last Name:" style="shape=parallelogram;perimeter=parallelogramPerimeter;whiteSpace=wrap;html=1;fixedSize=1;" vertex="1" parent="1">
          <mxGeometry x="354" y="210" width="120" height="60" as="geometry" />
        </mxCell>
        <mxCell id="DhF1V45KQ2lxHyCD6Vbx-11" value="" style="edgeStyle=orthogonalEdgeStyle;rounded=0;orthogonalLoop=1;jettySize=auto;html=1;" edge="1" parent="1" source="DhF1V45KQ2lxHyCD6Vbx-8" target="DhF1V45KQ2lxHyCD6Vbx-10">
          <mxGeometry relative="1" as="geometry" />
        </mxCell>
        <mxCell id="DhF1V45KQ2lxHyCD6Vbx-8" value="Output" style="shape=parallelogram;perimeter=parallelogramPerimeter;whiteSpace=wrap;html=1;fixedSize=1;" vertex="1" parent="1">
          <mxGeometry x="354" y="300" width="120" height="60" as="geometry" />
        </mxCell>
        <mxCell id="DhF1V45KQ2lxHyCD6Vbx-10" value="End" style="ellipse;whiteSpace=wrap;html=1;" vertex="1" parent="1">
          <mxGeometry x="354" y="390" width="120" height="80" as="geometry" />
        </mxCell>
      </root>
    </mxGraphModel>
  </diagram>
</mxfile>
